<svg width="1477" height="149" viewBox="0 0 1477 149" fill="none" xmlns="http://www.w3.org/2000/svg">
<path d="M362.613 63.7326C226.383 142.304 64.1084 96.4708 0 63.7326V186H1478V87.7852C1343.77 11.1175 1245.11 22.6427 1132.42 63.7326C1019.72 104.822 916.55 106.827 779.819 51.7063C643.088 -3.41431 532.901 -34.4823 362.613 63.7326Z" fill="url(#paint0_linear)"/>
<path d="M633.613 74.7326C497.383 153.304 335.108 107.471 271 74.7326V197H1749V98.7852C1614.77 22.1175 1516.11 33.6427 1403.42 74.7326C1290.72 115.822 1187.55 117.827 1050.82 62.7063C914.088 7.58569 803.901 -23.4823 633.613 74.7326Z" fill="url(#paint1_linear)"/>
<defs>
<linearGradient id="paint0_linear" x1="444" y1="32" x2="1452" y2="186" gradientUnits="userSpaceOnUse">
<stop stop-color="white" stop-opacity="0"/>
<stop offset="1" stop-color="white" stop-opacity="0.1"/>
</linearGradient>
<linearGradient id="paint1_linear" x1="367.5" y1="90.0001" x2="1060.5" y2="123" gradientUnits="userSpaceOnUse">
<stop stop-color="white" stop-opacity="0"/>
<stop offset="1" stop-color="white" stop-opacity="0.1"/>
</linearGradient>
</defs>
</svg>
