<svg width="91" height="53" viewBox="0 0 91 53" fill="none" xmlns="http://www.w3.org/2000/svg">
<path d="M18.7695 13.2773C18.7409 13.1914 18.8268 12.9766 19.0273 12.6328C19.2279 12.2604 19.4427 11.8164 19.6719 11.3008C19.9297 10.7565 20.1732 10.1549 20.4023 9.49609C20.6602 8.80859 20.832 8.10677 20.918 7.39062C21.0326 6.67448 21.0326 5.95833 20.918 5.24219C20.8034 4.52604 20.5026 3.83854 20.0156 3.17969C19.7292 2.83594 19.2995 2.64974 18.7266 2.62109C18.1823 2.5638 17.5521 2.64974 16.8359 2.87891C16.1484 3.07943 15.418 3.40885 14.6445 3.86719C13.8997 4.29688 13.2122 4.8125 12.582 5.41406C11.9518 5.98698 11.4076 6.63151 10.9492 7.34766C10.5195 8.0638 10.276 8.79427 10.2188 9.53906C10.1615 10.1406 10.1758 10.6992 10.2617 11.2148C10.3763 11.7305 10.5195 12.2031 10.6914 12.6328C10.8633 13.0625 11.0495 13.4635 11.25 13.8359C11.4505 14.2083 11.6367 14.5378 11.8086 14.8242C12.0378 15.2253 12.3958 15.6693 12.8828 16.1562C13.3698 16.6432 13.8997 17.2018 14.4727 17.832C15.0456 18.4336 15.6185 19.1211 16.1914 19.8945C16.7643 20.668 17.2656 21.5417 17.6953 22.5156C18.125 23.4896 18.4258 24.5781 18.5977 25.7812C18.7695 26.9844 18.7552 28.3164 18.5547 29.7773C18.2396 31.8971 17.7383 33.6589 17.0508 35.0625C16.3633 36.4948 15.6042 37.6406 14.7734 38.5C13.9714 39.3594 13.1549 39.9753 12.3242 40.3477C11.4935 40.7487 10.806 41.0065 10.2617 41.1211C9.83203 41.207 9.31641 41.2786 8.71484 41.3359C8.14193 41.4219 7.52604 41.4076 6.86719 41.293C6.23698 41.207 5.59245 41.0065 4.93359 40.6914C4.27474 40.4049 3.6875 39.9466 3.17188 39.3164C2.57031 38.6003 2.09766 37.8268 1.75391 36.9961C1.4388 36.2799 1.20964 35.4492 1.06641 34.5039C0.894531 33.5872 0.966146 32.6276 1.28125 31.625C1.51042 31.3672 1.75391 31.138 2.01172 30.9375C2.26953 30.737 2.52734 30.5651 2.78516 30.4219C3.07161 30.25 3.3724 30.0924 3.6875 29.9492C4.0599 29.8346 4.43229 29.7344 4.80469 29.6484C5.11979 29.5911 5.44922 29.5625 5.79297 29.5625C6.16536 29.5339 6.50911 29.5768 6.82422 29.6914C6.39453 30.1784 6.09375 30.6367 5.92188 31.0664C5.80729 31.2956 5.72135 31.4961 5.66406 31.668C5.54948 32.2122 5.50651 32.8568 5.53516 33.6016C5.59245 34.375 5.75 35.1055 6.00781 35.793C6.29427 36.5091 6.69531 37.1107 7.21094 37.5977C7.72656 38.1133 8.41406 38.3854 9.27344 38.4141C11.3646 38.4714 13.1406 36.8385 14.6016 33.5156C15.0885 32.4844 15.332 31.4388 15.332 30.3789C15.3607 29.319 15.2318 28.3021 14.9453 27.3281C14.6875 26.3542 14.3294 25.4518 13.8711 24.6211C13.4414 23.7617 12.9974 23.0312 12.5391 22.4297C12.0807 21.8281 11.5221 21.1836 10.8633 20.4961C10.2331 19.7799 9.60286 19.0065 8.97266 18.1758C8.34245 17.3451 7.76953 16.4427 7.25391 15.4688C6.76693 14.4948 6.4375 13.4349 6.26562 12.2891C6.03646 10.6849 6.17969 9.22396 6.69531 7.90625C7.23958 6.5599 7.95573 5.38542 8.84375 4.38281C9.76042 3.38021 10.7487 2.5638 11.8086 1.93359C12.8971 1.30339 13.8568 0.902344 14.6875 0.730469C19.2995 -0.186198 22.3216 0.58724 23.7539 3.05078C24.3555 3.99609 24.6849 4.9987 24.7422 6.05859C24.7995 7.11849 24.7279 8.10677 24.5273 9.02344C24.3555 9.91146 24.1263 10.6706 23.8398 11.3008C23.582 11.9023 23.4102 12.2318 23.3242 12.2891C23.1523 12.4609 22.8802 12.6471 22.5078 12.8477C22.1354 13.0482 21.5339 13.2344 20.7031 13.4062C20.474 13.4635 20.2448 13.4922 20.0156 13.4922C19.8151 13.4922 19.6003 13.4779 19.3711 13.4492C19.1419 13.4206 18.9414 13.3633 18.7695 13.2773ZM34.1094 6.44531C34.1094 6.70312 34.0091 7.01823 33.8086 7.39062C33.6367 7.73438 33.3932 8.0638 33.0781 8.37891C32.7917 8.66536 32.4622 8.92318 32.0898 9.15234C31.7461 9.35286 31.388 9.45312 31.0156 9.45312C30.7005 9.45312 30.4141 9.29557 30.1562 8.98047C29.8984 8.66536 29.7839 8.23568 29.8125 7.69141C29.8125 7.31901 29.9128 6.93229 30.1133 6.53125C30.3424 6.10156 30.6146 5.71484 30.9297 5.37109C31.2734 5.02734 31.6315 4.75521 32.0039 4.55469C32.4049 4.32552 32.7773 4.21094 33.1211 4.21094C33.6081 4.21094 33.8945 4.4401 33.9805 4.89844C34.0951 5.35677 34.138 5.8724 34.1094 6.44531ZM19.0703 52.5078C18.2969 52.5078 17.6237 52.293 17.0508 51.8633C16.4779 51.4336 16.0195 50.8893 15.6758 50.2305C15.3034 49.5716 15.0312 48.8555 14.8594 48.082C14.6875 47.3086 14.6159 46.5781 14.6445 45.8906C14.6732 45.2891 14.9023 44.5156 15.332 43.5703C15.7331 42.625 16.306 41.6081 17.0508 40.5195C17.7956 39.4596 18.6979 38.3711 19.7578 37.2539C20.8177 36.1654 21.9922 35.1914 23.2812 34.332C23.4531 33.444 23.6393 32.5417 23.8398 31.625C24.0117 30.6797 24.1836 29.7773 24.3555 28.918C24.5273 28.0299 24.6992 27.1992 24.8711 26.4258C25.0716 25.6237 25.2578 24.9219 25.4297 24.3203C25.6302 23.5469 25.8451 22.7305 26.0742 21.8711C26.2747 21.1263 26.5039 20.3099 26.7617 19.4219C27.0195 18.5052 27.2917 17.5885 27.5781 16.6719C27.8646 16.5286 28.1367 16.4284 28.3945 16.3711C28.6523 16.3138 28.8815 16.2708 29.082 16.2422C29.3112 16.2135 29.526 16.2135 29.7266 16.2422C29.9271 16.2708 30.1276 16.3281 30.3281 16.4141C30.7005 16.5573 31.0299 16.8151 31.3164 17.1875C30.8294 18.7344 30.4141 20.0521 30.0703 21.1406C29.7552 22.2292 29.4831 23.1315 29.2539 23.8477C28.9961 24.6784 28.7956 25.3802 28.6523 25.9531C28.3945 26.7552 28.1654 27.6719 27.9648 28.7031C27.7643 29.7057 27.5352 30.7943 27.2773 31.9688C28.4805 31.224 29.6836 30.3503 30.8867 29.3477C32.1185 28.3451 33.2357 27.3711 34.2383 26.4258C35.2695 25.4518 36.1289 24.6068 36.8164 23.8906C37.5326 23.1458 37.9766 22.6732 38.1484 22.4727C38.349 22.2435 38.5495 22.1289 38.75 22.1289C38.9505 22.1003 39.1081 22.1576 39.2227 22.3008C39.3659 22.444 39.4232 22.6589 39.3945 22.9453C39.3945 23.2031 39.2656 23.5039 39.0078 23.8477C38.6068 24.4206 38.0052 25.151 37.2031 26.0391C36.401 26.8984 35.4844 27.8151 34.4531 28.7891C33.4219 29.7344 32.3047 30.694 31.1016 31.668C29.9271 32.6133 28.7526 33.4297 27.5781 34.1172C27.3203 34.2604 27.0339 34.4466 26.7188 34.6758C26.3177 36.3659 25.931 38.0273 25.5586 39.6602C25.1862 41.293 24.7708 42.8112 24.3125 44.2148C23.8828 45.5898 23.4961 46.793 23.1523 47.8242C22.8086 48.8841 22.4505 49.7578 22.0781 50.4453C21.7057 51.1328 21.2904 51.6484 20.832 51.9922C20.3451 52.3359 19.7578 52.5078 19.0703 52.5078ZM17.5234 47.0938C17.4661 48.0964 17.5378 48.8411 17.7383 49.3281C17.9388 49.8438 18.2109 50.1016 18.5547 50.1016C18.7839 50.1016 19.0417 49.8581 19.3281 49.3711C19.5859 48.8841 19.8438 48.2682 20.1016 47.5234C20.3307 46.7786 20.5742 45.9622 20.832 45.0742C21.0612 44.2148 21.276 43.3984 21.4766 42.625C21.6484 41.8516 21.7917 41.1927 21.9062 40.6484C22.0208 40.1042 22.0924 39.7891 22.1211 39.7031C22.1784 39.474 22.2357 39.2305 22.293 38.9727C22.3503 38.7148 22.4076 38.4284 22.4648 38.1133C21.806 38.8008 21.1901 39.5026 20.6172 40.2188C20.0156 40.9635 19.5 41.7227 19.0703 42.4961C18.612 43.2695 18.2539 44.043 17.9961 44.8164C17.7096 45.5898 17.5521 46.349 17.5234 47.0938ZM57.6992 24.4492C57.2982 25.0221 56.7826 25.7383 56.1523 26.5977C55.5221 27.4284 54.8633 28.2734 54.1758 29.1328C53.5169 29.9635 52.8581 30.737 52.1992 31.4531C51.569 32.1406 51.0391 32.6276 50.6094 32.9141C50.3229 33.0859 49.9935 33.2292 49.6211 33.3438C49.2487 33.4583 48.862 33.5299 48.4609 33.5586C48.0885 33.5872 47.7305 33.5586 47.3867 33.4727C47.043 33.4154 46.7422 33.3008 46.4844 33.1289C46.2266 32.9284 46.0117 32.6419 45.8398 32.2695C45.6966 31.9544 45.5534 31.5391 45.4102 31.0234C45.2956 30.5078 45.2526 29.8633 45.2812 29.0898C44.5938 30.2357 43.8346 31.1237 43.0039 31.7539C42.1732 32.3555 41.3854 32.7995 40.6406 33.0859C39.7812 33.401 38.9219 33.5872 38.0625 33.6445C37.6615 33.6445 37.2318 33.5013 36.7734 33.2148C36.3151 32.957 35.9284 32.5417 35.6133 31.9688C35.2982 31.3672 35.0977 30.6081 35.0117 29.6914C34.9258 28.7461 35.0404 27.6289 35.3555 26.3398C35.7565 24.5924 36.3867 23.0026 37.2461 21.5703C38.1341 20.138 39.0938 18.9206 40.125 17.918C41.1562 16.8867 42.1732 16.1133 43.1758 15.5977C44.1784 15.082 45.0091 14.8529 45.668 14.9102C46.4414 15.0534 47.0716 15.2826 47.5586 15.5977C47.9596 15.8841 48.2174 16.3138 48.332 16.8867C48.4753 17.431 48.2461 18.1615 47.6445 19.0781C48.0456 18.9922 48.375 18.9349 48.6328 18.9062C48.9193 18.8776 49.1341 18.8633 49.2773 18.8633C49.4492 18.8633 49.5638 18.8776 49.6211 18.9062C49.6497 18.9635 49.6641 19.0924 49.6641 19.293C49.6641 19.4648 49.6211 19.7943 49.5352 20.2812C49.4492 20.7682 49.3203 21.4271 49.1484 22.2578C48.9766 23.0885 48.7474 24.1628 48.4609 25.4805C48.4036 25.7383 48.3464 25.9818 48.2891 26.2109C48.2604 26.4115 48.2174 26.6263 48.1602 26.8555C48.1315 27.056 48.0885 27.2995 48.0312 27.5859C47.974 27.8724 47.9023 28.2305 47.8164 28.6602C47.7878 28.918 47.7734 29.2044 47.7734 29.5195C47.8021 29.806 47.8594 30.0781 47.9453 30.3359C48.0312 30.5938 48.1602 30.8086 48.332 30.9805C48.5326 31.1237 48.8047 31.1953 49.1484 31.1953C49.4349 31.1953 49.8073 31.0234 50.2656 30.6797C50.724 30.3073 51.2109 29.849 51.7266 29.3047C52.2422 28.7318 52.7721 28.1159 53.3164 27.457C53.8893 26.7695 54.4193 26.1107 54.9062 25.4805C55.3932 24.8503 55.8229 24.2917 56.1953 23.8047C56.5964 23.3177 56.8828 22.9596 57.0547 22.7305C57.2839 22.4727 57.513 22.3294 57.7422 22.3008C57.9714 22.2435 58.1432 22.3008 58.2578 22.4727C58.3724 22.6445 58.3867 22.9023 58.3008 23.2461C58.2435 23.5898 58.043 23.9909 57.6992 24.4492ZM45.1094 26.3398C45.2526 25.7669 45.4245 25.0938 45.625 24.3203C45.8255 23.5469 45.9974 22.8021 46.1406 22.0859C46.2839 21.3698 46.3841 20.7826 46.4414 20.3242C46.5273 19.8372 46.513 19.6081 46.3984 19.6367C46.2552 19.6654 46.0977 19.7083 45.9258 19.7656C45.7826 19.8229 45.5964 19.8659 45.3672 19.8945C45.138 19.9232 44.9089 19.9661 44.6797 20.0234C44.9089 19.5651 45.0378 19.1927 45.0664 18.9062C45.1237 18.5911 45.138 18.3477 45.1094 18.1758C45.0807 17.9753 45.0234 17.8177 44.9375 17.7031C44.6224 17.4453 44.0638 17.6602 43.2617 18.3477C42.4883 19.0065 41.5859 20.2383 40.5547 22.043C40.125 22.7878 39.7812 23.5898 39.5234 24.4492C39.2656 25.2799 39.0794 26.0677 38.9648 26.8125C38.8789 27.5573 38.8646 28.2161 38.9219 28.7891C38.9792 29.3333 39.0938 29.6914 39.2656 29.8633C39.5807 30.1784 39.9388 30.3359 40.3398 30.3359C40.7409 30.3073 41.1419 30.1927 41.543 29.9922C41.9727 29.763 42.388 29.4766 42.7891 29.1328C43.2188 28.7891 43.5911 28.431 43.9062 28.0586C44.25 27.6862 44.5221 27.3424 44.7227 27.0273C44.9518 26.7122 45.0807 26.4831 45.1094 26.3398ZM64.2734 7.69141C64.1875 8.00651 64.0156 8.32161 63.7578 8.63672C63.5286 8.92318 63.2565 9.16667 62.9414 9.36719C62.6549 9.53906 62.3542 9.65365 62.0391 9.71094C61.724 9.76823 61.4661 9.71094 61.2656 9.53906C60.6641 9.08073 60.349 8.59375 60.3203 8.07812C60.2917 7.53385 60.4206 7.03255 60.707 6.57422C60.9935 6.08724 61.3516 5.6862 61.7812 5.37109C62.2109 5.02734 62.5833 4.82682 62.8984 4.76953C63.2135 4.71224 63.4714 4.78385 63.6719 4.98438C63.901 5.15625 64.0729 5.39974 64.1875 5.71484C64.3021 6.0013 64.3594 6.33073 64.3594 6.70312C64.388 7.07552 64.3594 7.40495 64.2734 7.69141ZM58.3438 16.8438C58.487 16.6719 58.7591 16.5286 59.1602 16.4141C59.5612 16.2995 59.9766 16.2135 60.4062 16.1562C60.8359 16.0703 61.2227 16.0273 61.5664 16.0273C61.9388 15.9987 62.1536 15.9987 62.2109 16.0273C62.2396 16.056 62.168 16.3568 61.9961 16.9297C61.8242 17.5026 61.6094 18.1758 61.3516 18.9492C61.0938 19.7227 60.8216 20.5247 60.5352 21.3555C60.2487 22.1576 60.0339 22.8164 59.8906 23.332C59.7474 23.8477 59.5755 24.4349 59.375 25.0938C59.1745 25.724 58.9883 26.3542 58.8164 26.9844C58.6732 27.5859 58.5729 28.1589 58.5156 28.7031C58.4583 29.2474 58.5013 29.6628 58.6445 29.9492C58.7878 30.293 58.9453 30.5365 59.1172 30.6797C59.2891 30.7943 59.4753 30.8516 59.6758 30.8516C60.2487 30.8516 60.9648 30.5365 61.8242 29.9062C62.7122 29.276 63.6003 28.5312 64.4883 27.6719C65.4049 26.7839 66.25 25.8958 67.0234 25.0078C67.7969 24.0911 68.3698 23.3607 68.7422 22.8164C68.9714 22.5299 69.2005 22.3438 69.4297 22.2578C69.6875 22.1719 69.888 22.1862 70.0312 22.3008C70.2031 22.4154 70.2891 22.6016 70.2891 22.8594C70.3177 23.1172 70.2318 23.418 70.0312 23.7617C69.5729 24.5638 68.8997 25.5234 68.0117 26.6406C67.1237 27.7292 66.1784 28.7891 65.1758 29.8203C64.1732 30.8229 63.1849 31.6823 62.2109 32.3984C61.2656 33.1146 60.4922 33.487 59.8906 33.5156C59.4036 33.5443 58.9167 33.4583 58.4297 33.2578C57.9714 33.0859 57.5417 32.8424 57.1406 32.5273C56.7682 32.1836 56.4531 31.7969 56.1953 31.3672C55.9375 30.9089 55.7943 30.4362 55.7656 29.9492C55.6797 29.2331 55.6797 28.2591 55.7656 27.0273C55.8516 25.7669 56.0091 24.4922 56.2383 23.2031C56.4674 21.8854 56.7539 20.6393 57.0977 19.4648C57.4701 18.2904 57.8854 17.4167 58.3438 16.8438ZM79.6562 34.0742C78.9974 34.0742 78.4245 33.9453 77.9375 33.6875C77.4792 33.4583 77.1068 33.1432 76.8203 32.7422C76.5339 32.3411 76.3477 31.8828 76.2617 31.3672C76.1758 30.8229 76.2044 30.25 76.3477 29.6484C76.4336 29.2474 76.5768 28.7174 76.7773 28.0586C76.9779 27.3711 77.1784 26.6406 77.3789 25.8672C77.6081 25.0651 77.8086 24.2773 77.9805 23.5039C78.181 22.7018 78.3099 21.9857 78.3672 21.3555C78.4245 20.6966 78.3958 20.1667 78.2812 19.7656C78.1667 19.3359 77.9232 19.1211 77.5508 19.1211C77.0924 19.1211 76.6198 19.2786 76.1328 19.5938C75.6458 19.8802 75.1445 20.2812 74.6289 20.7969C74.1419 21.3125 73.6406 21.9141 73.125 22.6016C72.638 23.2604 72.151 23.9479 71.6641 24.6641C71.4062 25.638 71.1914 26.4974 71.0195 27.2422C70.8477 27.9583 70.6901 28.6172 70.5469 29.2188C70.4323 29.7917 70.3177 30.3073 70.2031 30.7656C70.0885 31.1953 69.9883 31.6107 69.9023 32.0117C69.8164 32.2982 69.5586 32.5846 69.1289 32.8711C68.6992 33.1289 68.2409 33.3438 67.7539 33.5156C67.2669 33.6875 66.8516 33.7734 66.5078 33.7734C66.1354 33.7734 65.9779 33.6445 66.0352 33.3867C66.0638 33.2148 66.1641 32.8281 66.3359 32.2266C66.4792 31.625 66.6654 30.9232 66.8945 30.1211C67.0951 29.2904 67.3099 28.4167 67.5391 27.5C67.7682 26.5833 67.9831 25.7096 68.1836 24.8789C68.3268 24.2201 68.4844 23.4896 68.6562 22.6875C68.7995 22 68.9714 21.1979 69.1719 20.2812C69.401 19.3646 69.6589 18.362 69.9453 17.2734C70.1458 17.1016 70.3464 16.9727 70.5469 16.8867C70.776 16.7721 71.0052 16.6862 71.2344 16.6289C71.4635 16.543 71.707 16.4857 71.9648 16.457C72.194 16.457 72.4232 16.4714 72.6523 16.5C72.8529 16.5286 73.0534 16.5859 73.2539 16.6719C73.4831 16.7292 73.6836 16.8294 73.8555 16.9727C73.7695 17.1732 73.6693 17.4596 73.5547 17.832C73.4401 18.1758 73.3255 18.5482 73.2109 18.9492C73.0964 19.4076 72.9531 19.8802 72.7812 20.3672C73.1536 19.8516 73.569 19.3359 74.0273 18.8203C74.5143 18.276 75.0299 17.7891 75.5742 17.3594C76.1471 16.9297 76.7487 16.5859 77.3789 16.3281C78.0091 16.0417 78.6536 15.8984 79.3125 15.8984C79.8568 15.8984 80.3438 16.056 80.7734 16.3711C81.2031 16.6862 81.5326 17.1302 81.7617 17.7031C82.0195 18.2474 82.1628 18.9062 82.1914 19.6797C82.2487 20.4531 82.1484 21.2982 81.8906 22.2148L81.418 24.1055C81.2747 24.707 81.0885 25.4232 80.8594 26.2539C80.6589 27.056 80.401 27.944 80.0859 28.918C79.9141 29.5482 79.8424 30.0924 79.8711 30.5508C79.9284 31.0091 80.2148 31.2383 80.7305 31.2383C81.2461 31.2383 81.8906 30.9232 82.6641 30.293C83.4661 29.6628 84.2682 28.9036 85.0703 28.0156C85.8724 27.1276 86.6315 26.2253 87.3477 25.3086C88.0638 24.3633 88.6081 23.6042 88.9805 23.0312C89.2383 22.6589 89.4818 22.4154 89.7109 22.3008C89.9401 22.1862 90.112 22.1719 90.2266 22.2578C90.3698 22.3438 90.4414 22.5443 90.4414 22.8594C90.4414 23.1458 90.3268 23.5182 90.0977 23.9766C89.8971 24.3776 89.582 24.9076 89.1523 25.5664C88.7513 26.2253 88.2643 26.9271 87.6914 27.6719C87.1185 28.4167 86.5026 29.1758 85.8438 29.9492C85.1849 30.694 84.4974 31.3815 83.7812 32.0117C83.0651 32.6133 82.349 33.1003 81.6328 33.4727C80.9453 33.8737 80.2865 34.0742 79.6562 34.0742Z" fill="white"/>
</svg>
