<svg width="21" height="15" viewBox="0 0 21 15" fill="none" xmlns="http://www.w3.org/2000/svg">
<g clip-path="url(#clip0)">
<path d="M8.41518 6.88632C8.83965 6.67281 9.16055 6.43501 9.38046 6.17802C9.77168 5.7152 9.96474 5.10151 9.96474 4.3408C9.96474 3.60054 9.77168 2.96768 9.38557 2.43709C8.7412 1.57282 7.65063 1.13045 6.10874 1.10744H0V13.5768H5.69578C6.33759 13.5768 6.9321 13.5218 7.48186 13.4093C8.03163 13.2955 8.50723 13.0871 8.90996 12.7828C9.26795 12.5182 9.56712 12.1896 9.80492 11.8022C10.1808 11.2166 10.3687 10.5531 10.3687 9.81412C10.3687 9.09815 10.2038 8.4883 9.87652 7.98712C9.54539 7.48594 9.05955 7.11901 8.41518 6.88632ZM2.51995 3.27324H5.27131C5.87605 3.27324 6.37467 3.33844 6.7659 3.46757C7.21849 3.65552 7.44479 4.03779 7.44479 4.62079C7.44479 5.14371 7.27219 5.50936 6.93082 5.7152C6.5869 5.92104 6.1407 6.0246 5.5935 6.0246H2.51995V3.27324ZM6.87073 11.1936C6.56645 11.3407 6.13815 11.4135 5.58966 11.4135H2.51995V8.08812H5.63185C6.17394 8.09196 6.59585 8.16355 6.89758 8.2978C7.43456 8.54072 7.70177 8.98564 7.70177 9.6364C7.70177 10.4035 7.42561 10.92 6.87073 11.1936Z" fill="white"/>
<path d="M18.4886 1.68915H13.0715V3.24126H18.4886V1.68915Z" fill="white"/>
<path d="M20.3705 7.81452C20.258 7.09216 20.01 6.45674 19.6239 5.90826C19.2007 5.2869 18.6637 4.83175 18.0104 4.54408C17.3597 4.25514 16.6271 4.11067 15.8114 4.11195C14.4421 4.11195 13.3298 4.54025 12.4693 5.39046C11.6115 6.24323 11.1819 7.46932 11.1819 9.06746C11.1819 10.7717 11.6562 12.0029 12.61 12.7585C13.5599 13.5154 14.6569 13.8926 15.9021 13.8926C17.4095 13.8926 18.5819 13.4438 19.4193 12.5488C19.955 11.9837 20.258 11.4276 20.3245 10.8817H17.8289C17.6844 11.1514 17.5169 11.3624 17.3251 11.5158C16.9774 11.7971 16.5248 11.9377 15.9699 11.9377C15.4419 11.9377 14.9944 11.8214 14.6211 11.59C14.0048 11.2192 13.6827 10.5697 13.6417 9.64535H20.4524C20.4626 8.84883 20.437 8.23643 20.3705 7.81452ZM13.7031 8.0536C13.7926 7.45398 14.01 6.97837 14.3551 6.62678C14.7003 6.27647 15.1887 6.10003 15.8139 6.09875C16.3905 6.09875 16.8725 6.26368 17.265 6.59482C17.6524 6.92851 17.8711 7.41307 17.9158 8.0536H13.7031Z" fill="white"/>
</g>
<defs>
<clipPath id="clip0">
<rect width="20.4545" height="15" fill="white"/>
</clipPath>
</defs>
</svg>
