<svg width="30" height="30" viewBox="0 0 30 30" fill="none" xmlns="http://www.w3.org/2000/svg">
<g clip-path="url(#clip0)">
<path d="M17.6532 15.0007L29.4503 3.20354C30.1832 2.47122 30.1832 1.283 29.4503 0.550684C28.7173 -0.182259 27.5304 -0.182259 26.7974 0.550684L15.0003 12.3478L3.20256 0.550684C2.46962 -0.182259 1.28265 -0.182259 0.549707 0.550684C-0.183236 1.283 -0.183236 2.47122 0.549707 3.20354L12.3475 15.0007L0.549707 26.7978C-0.183236 27.5301 -0.183236 28.7183 0.549707 29.4506C0.916179 29.8165 1.39647 29.9997 1.87613 29.9997C2.3558 29.9997 2.83609 29.8165 3.20256 29.45L15.0003 17.6529L26.7974 29.45C27.1639 29.8165 27.6442 29.9997 28.1239 29.9997C28.6035 29.9997 29.0838 29.8165 29.4503 29.45C30.1832 28.7177 30.1832 27.5295 29.4503 26.7972L17.6532 15.0007Z" fill="white"/>
</g>
<defs>
<clipPath id="clip0">
<rect width="30" height="30" fill="white"/>
</clipPath>
</defs>
</svg>
