<svg width="16" height="15" viewBox="0 0 16 15" fill="none" xmlns="http://www.w3.org/2000/svg">
<g clip-path="url(#clip0)">
<path d="M7.95459 0.3125C3.81084 0.3125 0.45459 3.6125 0.45459 7.6825C0.45459 10.9394 2.60334 13.7012 5.58272 14.675C5.95772 14.7444 6.09521 14.5162 6.09521 14.3206C6.09521 14.1456 6.08896 13.6819 6.08584 13.0675C3.99959 13.5119 3.55959 12.0787 3.55959 12.0787C3.21834 11.2281 2.72521 11.0006 2.72521 11.0006C2.04584 10.5437 2.77771 10.5531 2.77771 10.5531C3.53084 10.6044 3.92646 11.3125 3.92646 11.3125C4.59521 12.4394 5.68209 12.1137 6.11084 11.9256C6.17834 11.4487 6.37147 11.1244 6.58584 10.94C4.92022 10.7556 3.16959 10.1219 3.16959 7.29812C3.16959 6.49375 3.46021 5.83625 3.94146 5.32062C3.85709 5.13437 3.60396 4.385 4.00709 3.37C4.00709 3.37 4.63521 3.1725 6.06959 4.12562C6.66959 3.96187 7.30709 3.88062 7.94459 3.87687C8.58209 3.88062 9.21959 3.96187 9.81959 4.12562C11.2446 3.1725 11.8727 3.37 11.8727 3.37C12.2758 4.385 12.0227 5.13437 11.9477 5.32062C12.4258 5.83625 12.7165 6.49375 12.7165 7.29812C12.7165 10.1294 10.9633 10.7525 9.29459 10.9337C9.55709 11.155 9.80084 11.6069 9.80084 12.2975C9.80084 13.2837 9.79146 14.0762 9.79146 14.3156C9.79146 14.5087 9.92272 14.7394 10.3071 14.6656C13.3077 13.6981 15.4546 10.9344 15.4546 7.6825C15.4546 3.6125 12.0965 0.3125 7.95459 0.3125Z" fill="white"/>
</g>
<defs>
<clipPath id="clip0">
<rect x="0.45459" width="15" height="15" fill="white"/>
</clipPath>
</defs>
</svg>
