<svg width="103" height="61" viewBox="0 0 103 61" fill="none" xmlns="http://www.w3.org/2000/svg">
<path d="M21.0684 15.5879C21.0358 15.4902 21.1335 15.2461 21.3613 14.8555C21.5892 14.4323 21.8333 13.9277 22.0938 13.3418C22.3867 12.7233 22.6634 12.0397 22.9238 11.291C23.2168 10.5098 23.4121 9.71224 23.5098 8.89844C23.64 8.08464 23.64 7.27083 23.5098 6.45703C23.3796 5.64323 23.0378 4.86198 22.4844 4.11328C22.1589 3.72266 21.6706 3.51107 21.0195 3.47852C20.401 3.41341 19.6849 3.51107 18.8711 3.77148C18.0898 3.99935 17.2598 4.3737 16.3809 4.89453C15.5345 5.38281 14.7533 5.96875 14.0371 6.65234C13.321 7.30339 12.7025 8.03581 12.1816 8.84961C11.6934 9.66341 11.4167 10.4935 11.3516 11.3398C11.2865 12.0234 11.3027 12.6582 11.4004 13.2441C11.5306 13.8301 11.6934 14.3672 11.8887 14.8555C12.084 15.3438 12.2956 15.7995 12.5234 16.2227C12.7513 16.6458 12.9629 17.0202 13.1582 17.3457C13.4186 17.8014 13.8255 18.306 14.3789 18.8594C14.9323 19.4128 15.5345 20.0475 16.1855 20.7637C16.8366 21.4473 17.4876 22.2285 18.1387 23.1074C18.7897 23.9863 19.3594 24.9792 19.8477 26.0859C20.3359 27.1927 20.6777 28.4297 20.873 29.7969C21.0684 31.1641 21.0521 32.6777 20.8242 34.3379C20.4661 36.7467 19.8965 38.7487 19.1152 40.3438C18.334 41.9714 17.4714 43.2734 16.5273 44.25C15.6159 45.2266 14.6882 45.9264 13.7441 46.3496C12.8001 46.8053 12.0189 47.0983 11.4004 47.2285C10.9121 47.3262 10.3262 47.4076 9.64258 47.4727C8.99154 47.5703 8.29167 47.554 7.54297 47.4238C6.82682 47.3262 6.0944 47.0983 5.3457 46.7402C4.59701 46.4147 3.92969 45.8939 3.34375 45.1777C2.66016 44.3639 2.12305 43.485 1.73242 42.541C1.37435 41.7272 1.11393 40.7832 0.951172 39.709C0.755859 38.6673 0.83724 37.5768 1.19531 36.4375C1.45573 36.1445 1.73242 35.8841 2.02539 35.6562C2.31836 35.4284 2.61133 35.2331 2.9043 35.0703C3.22982 34.875 3.57161 34.696 3.92969 34.5332C4.35286 34.403 4.77604 34.2891 5.19922 34.1914C5.55729 34.1263 5.93164 34.0938 6.32227 34.0938C6.74544 34.0612 7.13607 34.11 7.49414 34.2402C7.00586 34.7936 6.66406 35.3145 6.46875 35.8027C6.33854 36.0632 6.24089 36.291 6.17578 36.4863C6.04557 37.1048 5.99674 37.8372 6.0293 38.6836C6.0944 39.5625 6.27344 40.3926 6.56641 41.1738C6.89193 41.9876 7.34766 42.6712 7.93359 43.2246C8.51953 43.8105 9.30078 44.1198 10.2773 44.1523C12.6536 44.2174 14.6719 42.362 16.332 38.5859C16.8854 37.4141 17.1621 36.2259 17.1621 35.0215C17.1947 33.8171 17.0482 32.6615 16.7227 31.5547C16.4297 30.4479 16.0228 29.4225 15.502 28.4785C15.0137 27.502 14.5091 26.6719 13.9883 25.9883C13.4674 25.3047 12.8327 24.5723 12.084 23.791C11.3678 22.9772 10.6517 22.0983 9.93555 21.1543C9.2194 20.2103 8.56836 19.1849 7.98242 18.0781C7.42904 16.9714 7.05469 15.7669 6.85938 14.4648C6.59896 12.6419 6.76172 10.9818 7.34766 9.48438C7.96615 7.95443 8.77995 6.61979 9.78906 5.48047C10.8307 4.34115 11.9538 3.41341 13.1582 2.69727C14.3952 1.98112 15.4857 1.52539 16.4297 1.33008C21.6706 0.288411 25.1048 1.16732 26.7324 3.9668C27.416 5.04102 27.7904 6.18034 27.8555 7.38477C27.9206 8.58919 27.8392 9.71224 27.6113 10.7539C27.416 11.763 27.1556 12.6257 26.8301 13.3418C26.5371 14.0254 26.3418 14.3997 26.2441 14.4648C26.0488 14.6602 25.7396 14.8717 25.3164 15.0996C24.8932 15.3275 24.2096 15.5391 23.2656 15.7344C23.0052 15.7995 22.7448 15.832 22.4844 15.832C22.2565 15.832 22.0124 15.8158 21.752 15.7832C21.4915 15.7507 21.2637 15.6855 21.0684 15.5879ZM38.5 7.82422C38.5 8.11719 38.3861 8.47526 38.1582 8.89844C37.9629 9.28906 37.6862 9.66341 37.3281 10.0215C37.0026 10.347 36.6283 10.64 36.2051 10.9004C35.8145 11.1283 35.4076 11.2422 34.9844 11.2422C34.6263 11.2422 34.3008 11.0632 34.0078 10.7051C33.7148 10.347 33.5846 9.85872 33.6172 9.24023C33.6172 8.81706 33.7311 8.3776 33.959 7.92188C34.2194 7.43359 34.5286 6.99414 34.8867 6.60352C35.2773 6.21289 35.6842 5.90365 36.1074 5.67578C36.5632 5.41536 36.9863 5.28516 37.377 5.28516C37.9303 5.28516 38.2559 5.54557 38.3535 6.06641C38.4837 6.58724 38.5326 7.17318 38.5 7.82422ZM21.4102 60.168C20.5312 60.168 19.7663 59.9238 19.1152 59.4355C18.4642 58.9473 17.9434 58.3288 17.5527 57.5801C17.1296 56.8314 16.8203 56.0176 16.625 55.1387C16.4297 54.2598 16.3483 53.4297 16.3809 52.6484C16.4134 51.9648 16.6738 51.0859 17.1621 50.0117C17.6178 48.9375 18.2689 47.7819 19.1152 46.5449C19.9616 45.3405 20.987 44.1035 22.1914 42.834C23.3958 41.597 24.7305 40.4902 26.1953 39.5137C26.3906 38.5046 26.6022 37.4792 26.8301 36.4375C27.0254 35.3633 27.2207 34.3379 27.416 33.3613C27.6113 32.3522 27.8066 31.4082 28.002 30.5293C28.2298 29.6178 28.4414 28.8203 28.6367 28.1367C28.8646 27.2578 29.1087 26.3301 29.3691 25.3535C29.597 24.5072 29.8574 23.5794 30.1504 22.5703C30.4434 21.5286 30.7526 20.487 31.0781 19.4453C31.4036 19.2826 31.7129 19.1686 32.0059 19.1035C32.2988 19.0384 32.5592 18.9896 32.7871 18.957C33.0475 18.9245 33.2917 18.9245 33.5195 18.957C33.7474 18.9896 33.9753 19.0547 34.2031 19.1523C34.6263 19.3151 35.0007 19.6081 35.3262 20.0312C34.7728 21.7891 34.3008 23.2865 33.9102 24.5234C33.5521 25.7604 33.2428 26.7858 32.9824 27.5996C32.6895 28.5436 32.4616 29.3411 32.2988 29.9922C32.0059 30.9036 31.7454 31.9453 31.5176 33.1172C31.2897 34.2565 31.0293 35.4935 30.7363 36.8281C32.1035 35.9818 33.4707 34.9889 34.8379 33.8496C36.2376 32.7103 37.5072 31.6035 38.6465 30.5293C39.8184 29.4225 40.7949 28.4622 41.5762 27.6484C42.39 26.8021 42.8945 26.265 43.0898 26.0371C43.3177 25.7767 43.5456 25.6465 43.7734 25.6465C44.0013 25.6139 44.1803 25.679 44.3105 25.8418C44.4733 26.0046 44.5384 26.2487 44.5059 26.5742C44.5059 26.8672 44.3594 27.209 44.0664 27.5996C43.6107 28.2507 42.9271 29.0807 42.0156 30.0898C41.1042 31.0664 40.0625 32.1081 38.8906 33.2148C37.7188 34.2891 36.4492 35.3796 35.082 36.4863C33.7474 37.5605 32.4128 38.4883 31.0781 39.2695C30.7852 39.4323 30.4596 39.6439 30.1016 39.9043C29.6458 41.8249 29.2064 43.7129 28.7832 45.5684C28.36 47.4238 27.888 49.1491 27.3672 50.7441C26.8789 52.3066 26.4395 53.6738 26.0488 54.8457C25.6582 56.0501 25.2513 57.043 24.8281 57.8242C24.4049 58.6055 23.9329 59.1914 23.4121 59.582C22.8587 59.9727 22.1914 60.168 21.4102 60.168ZM19.6523 54.0156C19.5872 55.1549 19.6686 56.0013 19.8965 56.5547C20.1243 57.1406 20.4336 57.4336 20.8242 57.4336C21.0846 57.4336 21.3776 57.1569 21.7031 56.6035C21.9961 56.0501 22.2891 55.3503 22.582 54.5039C22.8424 53.6576 23.1191 52.7298 23.4121 51.7207C23.6725 50.7441 23.9167 49.8164 24.1445 48.9375C24.3398 48.0586 24.5026 47.3099 24.6328 46.6914C24.763 46.0729 24.8444 45.7148 24.877 45.6172C24.9421 45.3568 25.0072 45.0801 25.0723 44.7871C25.1374 44.4941 25.2025 44.1686 25.2676 43.8105C24.5189 44.5918 23.819 45.3893 23.168 46.2031C22.4844 47.0495 21.8984 47.9121 21.4102 48.791C20.8893 49.6699 20.4824 50.5488 20.1895 51.4277C19.8639 52.3066 19.6849 53.1693 19.6523 54.0156ZM65.3066 28.2832C64.8509 28.9342 64.265 29.748 63.5488 30.7246C62.8327 31.6686 62.084 32.6289 61.3027 33.6055C60.554 34.5495 59.8053 35.4284 59.0566 36.2422C58.3405 37.0234 57.7383 37.5768 57.25 37.9023C56.9245 38.0977 56.5501 38.2604 56.127 38.3906C55.7038 38.5208 55.2643 38.6022 54.8086 38.6348C54.3854 38.6673 53.9785 38.6348 53.5879 38.5371C53.1973 38.472 52.8555 38.3418 52.5625 38.1465C52.2695 37.9186 52.0254 37.5931 51.8301 37.1699C51.6673 36.8118 51.5046 36.3398 51.3418 35.7539C51.2116 35.168 51.1628 34.4355 51.1953 33.5566C50.4141 34.8587 49.5514 35.8678 48.6074 36.584C47.6634 37.2676 46.7682 37.7721 45.9219 38.0977C44.9453 38.4557 43.9688 38.6673 42.9922 38.7324C42.5365 38.7324 42.0482 38.5697 41.5273 38.2441C41.0065 37.9512 40.5671 37.4792 40.209 36.8281C39.8509 36.1445 39.623 35.2819 39.5254 34.2402C39.4277 33.166 39.5579 31.8965 39.916 30.4316C40.3717 28.446 41.0879 26.6393 42.0645 25.0117C43.0736 23.3841 44.1641 22.0007 45.3359 20.8613C46.5078 19.6895 47.6634 18.8105 48.8027 18.2246C49.9421 17.6387 50.8861 17.3783 51.6348 17.4434C52.5137 17.6061 53.2298 17.8665 53.7832 18.2246C54.2389 18.5501 54.5319 19.0384 54.6621 19.6895C54.8249 20.3079 54.5645 21.138 53.8809 22.1797C54.3366 22.082 54.7109 22.0169 55.0039 21.9844C55.3294 21.9518 55.5736 21.9355 55.7363 21.9355C55.9316 21.9355 56.0618 21.9518 56.127 21.9844C56.1595 22.0495 56.1758 22.196 56.1758 22.4238C56.1758 22.6191 56.127 22.9935 56.0293 23.5469C55.9316 24.1003 55.7852 24.849 55.5898 25.793C55.3945 26.737 55.1341 27.9577 54.8086 29.4551C54.7435 29.748 54.6784 30.0247 54.6133 30.2852C54.5807 30.513 54.5319 30.7572 54.4668 31.0176C54.4342 31.2454 54.3854 31.5221 54.3203 31.8477C54.2552 32.1732 54.1738 32.5801 54.0762 33.0684C54.0436 33.3613 54.0273 33.6868 54.0273 34.0449C54.0599 34.3704 54.125 34.6797 54.2227 34.9727C54.3203 35.2656 54.4668 35.5098 54.6621 35.7051C54.89 35.8678 55.1992 35.9492 55.5898 35.9492C55.9154 35.9492 56.3385 35.7539 56.8594 35.3633C57.3802 34.9401 57.9336 34.4193 58.5195 33.8008C59.1055 33.1497 59.7077 32.4499 60.3262 31.7012C60.9772 30.9199 61.5794 30.1712 62.1328 29.4551C62.6862 28.7389 63.1745 28.1042 63.5977 27.5508C64.0534 26.9974 64.3789 26.5905 64.5742 26.3301C64.8346 26.0371 65.0951 25.8743 65.3555 25.8418C65.6159 25.7767 65.8112 25.8418 65.9414 26.0371C66.0716 26.2324 66.0879 26.5254 65.9902 26.916C65.9251 27.3066 65.6973 27.7624 65.3066 28.2832ZM51 30.4316C51.1628 29.7806 51.3581 29.0156 51.5859 28.1367C51.8138 27.2578 52.0091 26.4115 52.1719 25.5977C52.3346 24.7839 52.4486 24.1165 52.5137 23.5957C52.6113 23.0423 52.5951 22.7819 52.4648 22.8145C52.3021 22.847 52.123 22.8958 51.9277 22.9609C51.765 23.026 51.5534 23.0749 51.293 23.1074C51.0326 23.14 50.7721 23.1888 50.5117 23.2539C50.7721 22.7331 50.9186 22.3099 50.9512 21.9844C51.0163 21.6263 51.0326 21.3496 51 21.1543C50.9674 20.9264 50.9023 20.7474 50.8047 20.6172C50.4466 20.3242 49.8118 20.5684 48.9004 21.3496C48.0215 22.0983 46.9961 23.498 45.8242 25.5488C45.3359 26.3952 44.9453 27.3066 44.6523 28.2832C44.3594 29.2272 44.1478 30.1224 44.0176 30.9688C43.9199 31.8151 43.9036 32.5638 43.9688 33.2148C44.0339 33.8333 44.1641 34.2402 44.3594 34.4355C44.7174 34.7936 45.1243 34.9727 45.5801 34.9727C46.0358 34.9401 46.4915 34.8099 46.9473 34.582C47.4355 34.3216 47.9076 33.9961 48.3633 33.6055C48.8516 33.2148 49.2747 32.8079 49.6328 32.3848C50.0234 31.9616 50.3327 31.571 50.5605 31.2129C50.821 30.8548 50.9674 30.5944 51 30.4316ZM72.7773 9.24023C72.6797 9.59831 72.4844 9.95638 72.1914 10.3145C71.931 10.64 71.6217 10.9167 71.2637 11.1445C70.9382 11.3398 70.5964 11.4701 70.2383 11.5352C69.8802 11.6003 69.5872 11.5352 69.3594 11.3398C68.6758 10.819 68.3177 10.2656 68.2852 9.67969C68.2526 9.0612 68.3991 8.49154 68.7246 7.9707C69.0501 7.41732 69.457 6.96159 69.9453 6.60352C70.4336 6.21289 70.8568 5.98503 71.2148 5.91992C71.5729 5.85482 71.8659 5.9362 72.0938 6.16406C72.3542 6.35938 72.5495 6.63607 72.6797 6.99414C72.8099 7.31966 72.875 7.69401 72.875 8.11719C72.9076 8.54036 72.875 8.91471 72.7773 9.24023ZM66.0391 19.6406C66.2018 19.4453 66.5111 19.2826 66.9668 19.1523C67.4225 19.0221 67.8945 18.9245 68.3828 18.8594C68.8711 18.7617 69.3105 18.7129 69.7012 18.7129C70.1243 18.6803 70.3685 18.6803 70.4336 18.7129C70.4661 18.7454 70.3848 19.0872 70.1895 19.7383C69.9941 20.3893 69.75 21.1543 69.457 22.0332C69.1641 22.9121 68.8548 23.8236 68.5293 24.7676C68.2038 25.679 67.9596 26.4277 67.7969 27.0137C67.6341 27.5996 67.4388 28.2669 67.2109 29.0156C66.9831 29.7318 66.7715 30.4479 66.5762 31.1641C66.4134 31.8477 66.2995 32.4987 66.2344 33.1172C66.1693 33.7357 66.2181 34.2077 66.3809 34.5332C66.5436 34.9238 66.7227 35.2005 66.918 35.3633C67.1133 35.4935 67.3249 35.5586 67.5527 35.5586C68.2038 35.5586 69.0176 35.2005 69.9941 34.4844C71.0033 33.7682 72.0124 32.9219 73.0215 31.9453C74.0632 30.9362 75.0234 29.9271 75.9023 28.918C76.7812 27.8763 77.4323 27.0462 77.8555 26.4277C78.1159 26.1022 78.3763 25.8906 78.6367 25.793C78.9297 25.6953 79.1576 25.7116 79.3203 25.8418C79.5156 25.972 79.6133 26.1836 79.6133 26.4766C79.6458 26.7695 79.5482 27.1113 79.3203 27.502C78.7995 28.4134 78.0345 29.5039 77.0254 30.7734C76.0163 32.0104 74.9421 33.2148 73.8027 34.3867C72.6634 35.526 71.5404 36.5026 70.4336 37.3164C69.3594 38.1302 68.4805 38.5534 67.7969 38.5859C67.2435 38.6185 66.6901 38.5208 66.1367 38.293C65.6159 38.0977 65.1276 37.821 64.6719 37.4629C64.2487 37.0723 63.8906 36.6328 63.5977 36.1445C63.3047 35.6237 63.1419 35.0866 63.1094 34.5332C63.0117 33.7194 63.0117 32.6126 63.1094 31.2129C63.207 29.7806 63.3861 28.332 63.6465 26.8672C63.9069 25.3698 64.2324 23.9538 64.623 22.6191C65.0462 21.2845 65.5182 20.2917 66.0391 19.6406ZM90.2578 39.2207C89.5091 39.2207 88.8581 39.0742 88.3047 38.7812C87.7839 38.5208 87.3607 38.1628 87.0352 37.707C86.7096 37.2513 86.498 36.7305 86.4004 36.1445C86.3027 35.526 86.3353 34.875 86.498 34.1914C86.5957 33.7357 86.7585 33.1335 86.9863 32.3848C87.2142 31.6035 87.4421 30.7734 87.6699 29.8945C87.9303 28.9831 88.1582 28.0879 88.3535 27.209C88.5814 26.2975 88.7279 25.4837 88.793 24.7676C88.8581 24.0189 88.8255 23.4167 88.6953 22.9609C88.5651 22.4727 88.2884 22.2285 87.8652 22.2285C87.3444 22.2285 86.8073 22.4076 86.2539 22.7656C85.7005 23.0911 85.1309 23.5469 84.5449 24.1328C83.9915 24.7188 83.4219 25.4023 82.8359 26.1836C82.2826 26.9323 81.7292 27.7135 81.1758 28.5273C80.8828 29.6341 80.6387 30.6107 80.4434 31.457C80.248 32.2708 80.069 33.0195 79.9062 33.7031C79.776 34.3542 79.6458 34.9401 79.5156 35.4609C79.3854 35.9492 79.2715 36.4212 79.1738 36.877C79.0762 37.2025 78.7832 37.528 78.2949 37.8535C77.8066 38.1465 77.2858 38.3906 76.7324 38.5859C76.179 38.7812 75.707 38.8789 75.3164 38.8789C74.8932 38.8789 74.7142 38.7324 74.7793 38.4395C74.8118 38.2441 74.9258 37.8047 75.1211 37.1211C75.2839 36.4375 75.4954 35.64 75.7559 34.7285C75.9837 33.7845 76.2279 32.7917 76.4883 31.75C76.7487 30.7083 76.9928 29.7155 77.2207 28.7715C77.3835 28.0228 77.5625 27.1927 77.7578 26.2812C77.9206 25.5 78.1159 24.5885 78.3438 23.5469C78.6042 22.5052 78.8971 21.3659 79.2227 20.1289C79.4505 19.9336 79.6784 19.7871 79.9062 19.6895C80.1667 19.5592 80.4271 19.4616 80.6875 19.3965C80.9479 19.2988 81.2246 19.2337 81.5176 19.2012C81.778 19.2012 82.0384 19.2174 82.2988 19.25C82.5267 19.2826 82.7546 19.3477 82.9824 19.4453C83.2428 19.5104 83.4707 19.6243 83.666 19.7871C83.5684 20.015 83.4544 20.3405 83.3242 20.7637C83.194 21.1543 83.0638 21.5775 82.9336 22.0332C82.8034 22.554 82.6406 23.0911 82.4453 23.6445C82.8685 23.0586 83.3405 22.4727 83.8613 21.8867C84.4147 21.2682 85.0007 20.7148 85.6191 20.2266C86.2702 19.7383 86.9538 19.3477 87.6699 19.0547C88.3861 18.7292 89.1185 18.5664 89.8672 18.5664C90.4857 18.5664 91.0391 18.7454 91.5273 19.1035C92.0156 19.4616 92.39 19.9661 92.6504 20.6172C92.9434 21.2357 93.1061 21.9844 93.1387 22.8633C93.2038 23.7422 93.0898 24.7025 92.7969 25.7441L92.2598 27.8926C92.097 28.5762 91.8854 29.39 91.625 30.334C91.3971 31.2454 91.1042 32.2546 90.7461 33.3613C90.5508 34.0775 90.4694 34.696 90.502 35.2168C90.5671 35.7376 90.8926 35.998 91.4785 35.998C92.0645 35.998 92.7969 35.64 93.6758 34.9238C94.5872 34.2077 95.4987 33.3451 96.4102 32.3359C97.3216 31.3268 98.1842 30.3014 98.998 29.2598C99.8118 28.1855 100.43 27.3229 100.854 26.6719C101.146 26.2487 101.423 25.972 101.684 25.8418C101.944 25.7116 102.139 25.6953 102.27 25.793C102.432 25.8906 102.514 26.1185 102.514 26.4766C102.514 26.8021 102.383 27.2253 102.123 27.7461C101.895 28.2018 101.537 28.804 101.049 29.5527C100.593 30.3014 100.04 31.099 99.3887 31.9453C98.7376 32.7917 98.0378 33.6543 97.2891 34.5332C96.5404 35.3796 95.7591 36.1608 94.9453 36.877C94.1315 37.5605 93.3177 38.1139 92.5039 38.5371C91.7227 38.9928 90.974 39.2207 90.2578 39.2207Z" fill="#219653"/>
</svg>
